<svg xmlns="http://www.w3.org/2000/svg" viewBox="0 0 111.73 57.93"><path d="M47.03 46.2h2.39l-.16.81h-2.39l-.45 2.31h-.9l1.06-5.46h3.64l-.15.82h-2.75l-.29 1.52zm5.55-2.33l-1.06 5.46h-.9l1.06-5.46h.9zm3.65.81l-.89 4.64h-.91l.9-4.64h-1.5l.16-.82h3.93l-.16.82h-1.53zm5.47 3.03l.36-1.92.36-1.92h.89l-1.04 5.46h-.85c-.03-.07-.09-.21-.18-.4-.09-.19-.19-.41-.31-.66-.12-.25-.24-.52-.37-.8s-.25-.55-.37-.81-.22-.49-.32-.69c-.09-.2-.16-.35-.19-.44h-.05l-.73 3.81h-.89l1.04-5.46h.84c.03.07.09.2.18.39s.19.42.31.68c.12.26.24.54.38.83.13.29.26.57.38.83s.22.49.31.69c.09.2.15.34.19.42h.06zm3.28-3.84h3.62l-.16.82h-2.72l-.29 1.5h2.38l-.16.82h-2.39l-.29 1.51h2.93l-.16.82h-3.83l1.07-5.47zm6.73-.1c.32 0 .63.04.94.11.3.07.58.2.82.37l-.46.73c-.19-.14-.4-.24-.63-.3-.23-.06-.46-.09-.69-.09-.12 0-.25.02-.38.05-.13.04-.25.09-.35.15-.11.07-.19.16-.27.27-.07.11-.11.24-.11.39 0 .12.03.21.09.29.06.08.14.15.23.2.1.06.2.1.31.13.11.03.22.06.33.08.24.06.46.12.66.2.2.07.37.16.51.27.14.11.25.24.33.4.08.16.12.35.12.57 0 .28-.06.52-.18.74-.12.22-.29.4-.49.55-.21.15-.45.27-.72.35-.27.08-.56.12-.86.12-.4 0-.76-.06-1.09-.17-.33-.12-.62-.3-.88-.55.03-.03.07-.07.12-.13.05-.06.11-.12.16-.19l.16-.19c.05-.06.09-.1.12-.13.18.17.4.3.65.4.25.09.51.14.79.14.39 0 .7-.09.92-.26.22-.17.33-.38.33-.64 0-.12-.03-.21-.09-.29-.06-.08-.14-.14-.24-.19s-.21-.1-.33-.13c-.12-.04-.25-.07-.37-.1-.19-.04-.38-.1-.56-.16-.18-.07-.34-.15-.48-.26-.14-.11-.25-.24-.33-.39-.08-.15-.13-.34-.13-.56 0-.27.05-.51.15-.73.1-.22.25-.4.43-.56.18-.15.4-.27.65-.36.26-.08.53-.13.82-.13zm5.14 0c.32 0 .63.04.94.11.3.07.58.2.82.37l-.46.73c-.19-.14-.4-.24-.63-.3-.23-.06-.46-.09-.69-.09-.12 0-.25.02-.38.05-.13.04-.25.09-.35.15-.11.07-.19.16-.27.27-.07.11-.11.24-.11.39 0 .12.03.21.09.29.06.08.14.15.23.2.1.06.2.1.31.13.11.03.22.06.33.08.24.06.46.12.66.2.2.07.37.16.51.27.14.11.25.24.33.4.08.16.12.35.12.57 0 .28-.06.52-.18.74-.12.22-.29.4-.49.55-.21.15-.45.27-.72.35-.27.08-.56.12-.86.12-.4 0-.76-.06-1.09-.17-.33-.12-.62-.3-.88-.55.03-.03.07-.07.12-.13.05-.06.11-.12.16-.19l.16-.19c.05-.06.09-.1.12-.13.18.17.4.3.65.4.25.09.51.14.79.14.39 0 .7-.09.92-.26.22-.17.33-.38.33-.64 0-.12-.03-.21-.09-.29a.654.654 0 00-.24-.19c-.1-.05-.21-.1-.33-.13-.12-.04-.25-.07-.37-.1-.19-.04-.38-.1-.56-.16-.18-.07-.34-.15-.48-.26-.14-.11-.25-.24-.33-.39-.08-.15-.13-.34-.13-.56 0-.27.05-.51.15-.73.1-.22.25-.4.43-.56.18-.15.4-.27.65-.36.25-.08.53-.13.82-.13zm9 1.28c-.13-.13-.3-.23-.51-.31a2.03 2.03 0 00-.62-.11c-.34 0-.62.09-.83.27-.22.18-.36.48-.44.88l-.32 1.6c-.02.09-.02.19-.02.28 0 .15.03.28.08.39a.842.842 0 00.54.43c.12.04.25.05.39.05.2 0 .41-.04.65-.1.23-.07.44-.17.62-.31l.38.74c-.23.17-.51.29-.83.38-.32.08-.63.13-.94.13-.23 0-.46-.03-.67-.1-.22-.07-.41-.17-.58-.3-.17-.13-.3-.3-.41-.49-.1-.19-.16-.42-.16-.68 0-.06 0-.13.01-.19s.02-.13.03-.21l.36-1.83c.11-.57.34-1.01.7-1.31.35-.31.85-.46 1.48-.46.31 0 .61.05.9.14.29.09.54.23.74.4l-.55.71zm1.04 4.27l1.06-5.46h.9l-.91 4.64h2.81l-.16.82h-3.7zm9.04-.96c-.13.22-.3.41-.5.56-.2.15-.42.26-.68.34-.25.08-.53.11-.82.11-.24 0-.47-.03-.69-.09-.22-.06-.42-.16-.58-.29-.17-.13-.3-.3-.4-.49-.1-.19-.15-.42-.15-.69 0-.07 0-.14.01-.21 0-.07.02-.14.03-.22l.68-3.51h.91l-.7 3.53c-.02.09-.02.18-.02.27 0 .16.03.29.09.41.06.11.13.21.22.28.09.07.19.12.31.15s.23.05.34.05c.15 0 .3-.02.45-.06.15-.04.28-.11.4-.2.12-.09.23-.21.32-.36s.16-.32.2-.53l.68-3.53h.92l-.73 3.73c-.06.27-.16.52-.29.75zm4.75-4.49c.24 0 .45.03.63.1s.32.16.44.28c.12.12.2.26.26.41.06.16.08.32.08.5 0 .28-.07.54-.22.77-.15.23-.38.42-.7.57.21.12.35.27.42.47.07.2.11.4.11.6 0 .23-.04.45-.12.66-.08.21-.2.4-.36.56-.16.16-.35.29-.57.39-.22.1-.48.15-.76.15h-2.53l1.06-5.46h2.26zm-2.26 4.64h1.28c.15 0 .29-.02.42-.06.13-.04.24-.1.34-.18.09-.08.17-.18.22-.29a.97.97 0 00.08-.39c0-.22-.06-.38-.19-.49-.13-.11-.3-.17-.53-.17h-1.3l-.32 1.58zm.47-2.39h1.28c.14 0 .27-.02.39-.07s.22-.11.3-.19c.08-.08.15-.16.19-.26.05-.1.07-.2.07-.3 0-.21-.06-.37-.19-.47-.13-.1-.3-.15-.53-.15h-1.24l-.27 1.44zm6.62-2.35c.32 0 .63.04.94.11.3.07.58.2.82.37l-.46.73c-.19-.14-.4-.24-.63-.3-.23-.06-.46-.09-.69-.09-.12 0-.25.02-.38.05-.13.04-.25.09-.35.15-.11.07-.19.16-.26.27-.07.11-.11.24-.11.39 0 .12.03.21.09.29.06.08.14.15.23.2.09.06.2.1.31.13.11.03.22.06.33.08.24.06.46.12.66.2.2.07.37.16.51.27.14.11.25.24.33.4.08.16.11.35.11.57 0 .28-.06.52-.18.74-.12.22-.29.4-.5.55-.21.15-.45.27-.72.35-.27.08-.56.12-.86.12-.4 0-.76-.06-1.09-.17-.33-.12-.62-.3-.88-.55.03-.03.07-.07.12-.13.05-.06.11-.12.16-.19l.16-.19c.05-.06.09-.1.12-.13.18.17.4.3.65.4.25.09.51.14.79.14.39 0 .7-.09.92-.26.22-.17.33-.38.33-.64 0-.12-.03-.21-.09-.29a.654.654 0 00-.24-.19c-.1-.05-.21-.1-.33-.13-.12-.04-.25-.07-.37-.1-.19-.04-.38-.1-.56-.16-.18-.07-.34-.15-.48-.26-.14-.11-.25-.24-.33-.39-.08-.15-.13-.34-.13-.56 0-.27.05-.51.15-.73.1-.22.25-.4.43-.56.18-.15.4-.27.64-.36.28-.08.55-.13.84-.13zm-9.14-27.04c-.26 1.45-1.69 2.63-3.21 2.63s-2.54-1.18-2.29-2.63 1.7-2.63 3.21-2.63c1.52 0 2.54 1.18 2.29 2.63z" fill="#FFF"/><path fill="#85C440" d="M3.65 17.89c.33-1.45 3.94-15.67 14.64-15.87 9.48-.17 11.56 14.81 11.56 14.81s7.32-5.48 12.47-8.77C47.08 5.02 53.69.56 57.41 0c0 0-7.66 6.66-14.03 12.08-3.11 2.65-10.45 9.51-12.61 11.53 0 0 1.69 19.77-12.1 26.75 0 0 4.03-10.87 3.18-18.69 0 0-7.99 8.11-19.76 26.26 0 0-2.01-1.54-2.08-5.85C-.1 46.6 3.83 37.76 20.7 23.2c0 0-1.25-14.01-7.54-13.89-5.75.11-8.74 8.97-8.74 8.97l-.77-.39z"/><path fill="#FFF" d="M110.55 36.37c.73 0 1.18.52 1.18 1.18 0 .65-.45 1.19-1.18 1.19s-1.18-.54-1.18-1.19c0-.66.45-1.18 1.18-1.18zm0 2.05c.56 0 .84-.41.84-.87s-.27-.86-.84-.86-.83.4-.83.86c0 .46.27.87.83.87zm.01-.71h-.16v.35h-.24v-1.09h.44c.24 0 .35.11.35.31v.12c0 .13-.05.22-.15.26l.28.4h-.28l-.24-.35zm.03-.52h-.2v.3h.2c.1 0 .13-.04.13-.11v-.08c.01-.08-.03-.11-.13-.11zM66.91 22.33h-5.27L58 27.11l-1.97-4.78h-4.94l3.54 7.99-6.89 8.42h5.46l3.98-5.07 2.02 5.07h5.17l-3.86-8.44zm25.04 16.41h-4.41l2.99-16.41h4.42zm-8.24-20.36h4.34l.74-4.25h-5.43c-3.71 0-6.14 2.89-6.67 5.78-.39 2.14-3.15 18.83-3.15 18.83h4.41s1.16-6.96 2.03-12.15h6.29l.74-4.26h-6.33c.12-.67.19-1.13.21-1.27.26-1.38 1.28-2.68 2.82-2.68zm18.93 8.21h6.81l.69-4.25h-6.72c.77-4.21 1.49-8.21 1.49-8.21h-4.41s-2.86 15.72-3.23 17.86c-.75 4.29 1.36 6.75 6.19 6.75h3.93l.74-4.25h-4.59c-1.67 0-2.18-1.25-1.89-2.62.11-.5.51-2.65.99-5.28z"/><path fill="#85C440" d="M71.3 30.26c-.26 1.45-1.49 2.5-3.01 2.5-1.52 0-2.74-1.27-2.49-2.72.25-1.45 1.61-2.53 3.13-2.53 1.43 0 2.63 1.3 2.37 2.75z"/></svg>